<?xml version="1.0" encoding="utf-8"?>
<!-- Generator: Adobe Illustrator 23.0.2, SVG Export Plug-In . SVG Version: 6.00 Build 0)  -->
<svg version="1.1" id="Layer_1" xmlns="http://www.w3.org/2000/svg" xmlns:xlink="http://www.w3.org/1999/xlink" x="0px" y="0px"
	 viewBox="0 0 200 75" style="enable-background:new 0 0 200 75;" xml:space="preserve">
<style type="text/css">
	.st0{fill:#F0FF49;}
</style>
<g>
	<g>
		<path class="st0" d="M38.64,36.14c36.55,0,73.11,0,109.66,0c5.21,0,10.41,0,15.62,0c1.93,0,1.93-3,0-3c-36.56,0-73.11,0-109.66,0
			c-5.21,0-10.41,0-15.62,0C36.71,33.14,36.71,36.14,38.64,36.14L38.64,36.14z"/>
	</g>
</g>
<g>
	<g>
		<path class="st0" d="M151.61,24.44c3.75,3.75,7.51,7.51,11.26,11.26c1.37,1.37,3.49-0.75,2.12-2.12
			c-3.75-3.75-7.51-7.51-11.26-11.26C152.36,20.95,150.24,23.07,151.61,24.44L151.61,24.44z"/>
	</g>
</g>
<g>
	<g>
		<path class="st0" d="M153.73,46.96c3.75-3.75,7.51-7.51,11.26-11.26c1.37-1.37-0.75-3.49-2.12-2.12
			c-3.75,3.75-7.51,7.51-11.26,11.26C150.24,46.2,152.36,48.32,153.73,46.96L153.73,46.96z"/>
	</g>
</g>
</svg>
